<svg xmlns="http://www.w3.org/2000/svg" width="2048" height="2048" viewBox="0 0 2048 2048" version="1.1"><path d="" stroke="none" fill="#e0dcdc" fill-rule="evenodd"/><path d="M 746.898 7.422 C 736.376 9.332, 729.598 13.242, 720 22.940 C 711.664 31.363, 706.295 39.831, 704.430 47.500 C 703.167 52.692, 702.783 76.183, 703.942 77.342 C 704.524 77.924, 705 79.216, 705 80.214 C 705 81.211, 705.412 82.809, 705.916 83.764 C 706.420 84.719, 707.538 87.129, 708.401 89.120 C 714.193 102.481, 729.412 115.125, 745.500 119.942 C 750.131 121.328, 771.543 120.905, 777 119.319 C 785.961 116.715, 794.825 111.176, 804.415 102.188 C 809.404 97.511, 809.757 97.434, 817.201 99.397 C 836.216 104.410, 855.100 113.612, 867.462 123.888 C 874.351 129.613, 887.949 144.038, 891.676 149.573 C 893.871 152.833, 897.542 159.043, 899.834 163.373 L 904.001 171.246 897.941 178.373 C 884.420 194.273, 872.533 214.974, 866 234 C 865.339 235.925, 864.427 238.400, 863.974 239.500 C 863.521 240.600, 862.872 242.850, 862.531 244.500 C 862.190 246.150, 861.472 249.300, 860.936 251.500 C 856.191 270.981, 856.236 300.921, 861.046 323.500 C 861.632 326.250, 862.361 329.967, 862.666 331.759 C 862.971 333.552, 863.621 335.266, 864.110 335.568 C 864.600 335.871, 865 337.190, 865 338.500 C 865 339.810, 865.450 341.160, 866 341.500 C 866.550 341.840, 867 342.949, 867 343.965 C 867 345.665, 869.233 350.835, 872.629 357 C 873.386 358.375, 875.692 363.009, 877.753 367.299 L 881.500 375.097 886 374.620 C 892.315 373.951, 897.161 373.010, 899.500 372 C 900.600 371.525, 902.850 370.901, 904.500 370.613 C 906.150 370.325, 909.638 369.619, 912.250 369.045 C 914.862 368.470, 919.138 367.529, 921.750 366.954 C 950.289 360.670, 966.338 359.500, 1024 359.500 C 1081.662 359.500, 1097.711 360.670, 1126.250 366.954 C 1128.862 367.529, 1133.138 368.470, 1135.750 369.045 C 1138.362 369.619, 1141.850 370.325, 1143.500 370.613 C 1145.150 370.901, 1147.400 371.525, 1148.500 372 C 1150.864 373.021, 1155.768 373.966, 1162 374.603 L 1166.500 375.062 1172.879 361.781 C 1180.081 346.784, 1180.407 346.031, 1182.072 340.500 C 1182.735 338.300, 1183.631 335.600, 1184.063 334.500 C 1184.496 333.400, 1185.132 331.150, 1185.478 329.500 C 1185.824 327.850, 1186.557 324.475, 1187.107 322 C 1189.481 311.309, 1190.126 305.585, 1190.659 290.500 C 1191.019 280.292, 1190.801 271.966, 1190.056 267.500 C 1188.324 257.112, 1186.883 249.811, 1186.009 247 C 1185.582 245.625, 1184.678 242.475, 1184.002 240 C 1183.326 237.525, 1182.373 234.488, 1181.886 233.250 C 1176.937 220.681, 1173.540 213.332, 1169.061 205.500 C 1164.432 197.408, 1155.958 185.310, 1150.059 178.373 L 1143.999 171.246 1148.166 163.373 C 1150.458 159.043, 1154.129 152.833, 1156.324 149.573 C 1160.051 144.038, 1173.649 129.613, 1180.538 123.888 C 1192.900 113.612, 1211.784 104.410, 1230.799 99.397 C 1238.212 97.443, 1238.609 97.524, 1243.339 101.956 C 1253.397 111.384, 1261.156 116.044, 1273.265 119.931 C 1278.920 121.747, 1297.708 121.518, 1303.466 119.563 C 1323.914 112.621, 1336.624 99.904, 1343.573 79.435 C 1345.553 73.605, 1345.796 55.058, 1343.968 49.348 C 1342.361 44.328, 1336.986 33.044, 1335.033 30.589 C 1321.606 13.717, 1306.884 6.114, 1287.500 6.041 C 1279.880 6.013, 1276.588 6.537, 1267.500 9.224 C 1254.092 13.190, 1237.389 30.078, 1233.093 44.014 C 1229.012 57.253, 1229.484 56.443, 1225.352 57.290 C 1223.233 57.725, 1219.475 58.537, 1217 59.096 C 1214.525 59.654, 1211.033 60.361, 1209.241 60.666 C 1207.448 60.971, 1205.734 61.621, 1205.432 62.110 C 1205.129 62.600, 1203.810 63, 1202.500 63 C 1201.190 63, 1199.840 63.450, 1199.500 64 C 1199.160 64.550, 1198.002 65, 1196.927 65 C 1195.852 65, 1194.191 65.397, 1193.236 65.883 C 1192.281 66.369, 1190.375 67.212, 1189 67.757 C 1169.177 75.607, 1147.016 93.088, 1127.993 115.884 C 1121.867 123.225, 1118.613 128.207, 1114.366 136.750 C 1112.384 140.738, 1110.528 144, 1110.243 144 C 1109.958 144, 1104.724 141.566, 1098.612 138.591 C 1089.454 134.133, 1072.741 128.065, 1055.429 122.914 C 1051.411 121.718, 996.555 121.726, 992.571 122.923 C 973.487 128.657, 958.867 133.949, 949.546 138.499 C 943.347 141.524, 938.042 144, 937.757 144 C 937.472 144, 935.616 140.738, 933.634 136.750 C 929.387 128.207, 926.133 123.225, 920.007 115.884 C 900.984 93.088, 878.823 75.607, 859 67.757 C 857.625 67.212, 855.719 66.369, 854.764 65.883 C 853.809 65.397, 852.148 65, 851.073 65 C 849.998 65, 848.840 64.550, 848.500 64 C 848.160 63.450, 846.810 63, 845.500 63 C 844.190 63, 842.871 62.600, 842.568 62.110 C 842.266 61.621, 840.552 60.971, 838.759 60.666 C 836.967 60.361, 833.475 59.654, 831 59.096 C 828.525 58.537, 824.767 57.725, 822.648 57.290 C 818.516 56.443, 818.988 57.253, 814.907 44.014 C 812.188 35.194, 803.805 24.315, 793.077 15.682 C 782.971 7.549, 764.452 4.237, 746.898 7.422 M 753.500 40 C 753.160 40.550, 751.999 41, 750.920 41 C 748.001 41, 741.715 45.520, 739.560 49.168 C 738.520 50.928, 736.906 54.838, 735.971 57.857 C 734.536 62.495, 734.460 64.058, 735.481 67.924 C 739.631 83.649, 752.901 91.787, 767.480 87.549 C 773.688 85.744, 780.852 80.007, 783.482 74.736 C 785.153 71.386, 785.574 59.102, 784.117 56.236 C 783.631 55.281, 782.688 53.324, 782.021 51.886 C 780.006 47.545, 773.108 41, 770.548 41 C 769.761 41, 768.840 40.550, 768.500 40 C 768.160 39.450, 764.785 39, 761 39 C 757.215 39, 753.840 39.450, 753.500 40 M 1277 41.233 C 1272.089 43.562, 1268.090 47.399, 1266.065 51.727 C 1265.351 53.252, 1264.369 55.281, 1263.883 56.236 C 1262.426 59.102, 1262.847 71.386, 1264.518 74.736 C 1268.128 81.972, 1279.451 89, 1287.500 89 C 1295.865 89, 1306.181 82.453, 1310.238 74.568 C 1312.696 69.793, 1313.114 60.515, 1311.131 54.744 C 1309.595 50.272, 1300.762 41, 1298.038 41 C 1296.982 41, 1295.840 40.550, 1295.500 40 C 1294.332 38.110, 1281.829 38.944, 1277 41.233 M 991.804 399.512 C 991.422 399.904, 986.697 400.649, 981.304 401.168 C 968.681 402.384, 952.240 404.684, 943.500 406.458 C 941.850 406.793, 938.025 407.536, 935 408.108 C 929.680 409.115, 926.749 409.790, 917.750 412.083 C 908.564 414.422, 905.402 415.262, 903 416 C 901.625 416.422, 898.475 417.339, 896 418.038 C 890.423 419.611, 875.012 424.649, 869.561 426.681 C 867.327 427.513, 863.025 429.102, 860 430.211 C 854.593 432.194, 852.471 433.053, 844.500 436.485 C 835.782 440.240, 831.792 442.120, 813.500 451.095 C 797.115 459.134, 788.948 463.490, 772.260 473.091 C 769.126 474.894, 745.750 490.614, 733.500 499.156 C 706.967 517.659, 648.538 575.997, 624.986 607.500 C 622.519 610.800, 620.050 614.004, 619.500 614.621 C 618.950 615.237, 616.025 619.245, 613 623.528 C 609.975 627.811, 606.148 633.157, 604.495 635.408 C 602.842 637.659, 599.250 642.875, 596.512 647 C 593.774 651.125, 591.267 654.725, 590.942 655 C 590.019 655.780, 582.393 667.243, 580.079 671.328 C 578.936 673.348, 577.100 676.575, 576 678.500 C 574.900 680.425, 573.100 683.575, 572 685.500 C 570.900 687.425, 569.100 690.575, 568 692.500 C 563.084 701.104, 558.805 708.916, 550.473 724.500 C 548.415 728.350, 544.779 735.100, 542.394 739.500 C 534.458 754.135, 518.300 787.373, 512.010 802 C 510.236 806.125, 507.434 812.425, 505.783 816 C 496.752 835.552, 492.966 844.130, 491 849.500 C 490.597 850.600, 489.697 852.850, 489 854.500 C 488.303 856.150, 487.403 858.400, 487 859.500 C 486.597 860.600, 485.757 862.737, 485.134 864.250 C 484.510 865.763, 483.497 868.237, 482.883 869.750 C 482.269 871.263, 481.369 873.281, 480.883 874.236 C 480.397 875.191, 480 876.434, 480 876.997 C 480 877.561, 479.151 879.929, 478.113 882.261 C 475.725 887.628, 463.596 919.179, 461.876 924.500 C 461.165 926.700, 460.308 928.950, 459.972 929.500 C 459.635 930.050, 458.748 932.525, 458 935 C 457.252 937.475, 456.352 939.950, 456 940.500 C 455.648 941.050, 454.751 943.525, 454.006 946 C 453.262 948.475, 452.280 950.928, 451.826 951.450 C 451.372 951.972, 451 953.216, 451 954.214 C 451 955.211, 450.550 956.921, 450 958.014 C 449.450 959.106, 448.550 960.894, 448 961.986 C 447.450 963.079, 447 964.660, 447 965.500 C 447 966.340, 446.586 967.809, 446.080 968.764 C 445.574 969.719, 444.180 973.200, 442.982 976.500 C 441.785 979.800, 440.428 983.400, 439.968 984.500 C 434.538 997.476, 431 1013.850, 431 1026 C 431 1038.144, 432.499 1045.354, 437.238 1055.994 C 444.142 1071.495, 462.471 1087.256, 482.750 1095.127 C 483.988 1095.607, 486.012 1096.399, 487.250 1096.886 C 495.493 1100.132, 509.837 1101.260, 526.500 1099.971 C 542.073 1098.768, 547.661 1097.339, 563 1090.641 C 573.863 1085.897, 591.180 1070.753, 598.875 1059.268 C 603.640 1052.156, 610.141 1039.403, 612.010 1033.500 C 612.707 1031.300, 614.790 1026.030, 616.638 1021.789 C 618.487 1017.548, 620 1013.187, 620 1012.098 C 620 1011.009, 620.450 1009.840, 621 1009.500 C 621.550 1009.160, 622 1008.002, 622 1006.927 C 622 1005.852, 622.397 1004.191, 622.883 1003.236 C 623.369 1002.281, 624.209 1000.375, 624.750 999 C 625.290 997.625, 626.243 995.263, 626.866 993.750 C 627.490 992.237, 628.503 989.763, 629.117 988.250 C 629.731 986.737, 630.631 984.719, 631.117 983.764 C 631.603 982.809, 632 981.340, 632 980.500 C 632 979.660, 632.450 978.079, 633 976.986 C 633.550 975.894, 634.450 974.106, 635 973.014 C 635.550 971.921, 636 970.211, 636 969.214 C 636 968.216, 636.358 966.972, 636.796 966.450 C 637.234 965.928, 638.163 963.700, 638.862 961.500 C 639.561 959.300, 640.552 956.487, 641.066 955.250 C 643.356 949.733, 644.319 947.365, 645.032 945.500 C 645.452 944.400, 646.472 941.925, 647.298 940 C 648.124 938.075, 651.365 930.200, 654.499 922.500 C 657.634 914.800, 661.101 906.475, 662.205 904 C 663.308 901.525, 664.887 897.925, 665.712 896 C 666.538 894.075, 668.570 889.575, 670.229 886 C 671.888 882.425, 673.580 878.600, 673.989 877.500 C 674.398 876.400, 675.202 874.375, 675.776 873 C 676.349 871.625, 677.070 869.712, 677.378 868.750 C 677.686 867.788, 678.517 867, 679.225 867 C 679.933 867, 681.101 865.087, 681.820 862.750 C 682.953 859.062, 696.966 830.259, 698.968 827.500 C 699.367 826.950, 702.080 822, 704.995 816.500 C 707.911 811, 712.828 802.675, 715.921 798 C 719.014 793.325, 722.200 788.150, 722.999 786.500 C 724.539 783.324, 742.958 754.851, 744.024 754 C 744.368 753.725, 746.608 750.575, 749 747 C 751.392 743.425, 753.630 740.275, 753.973 740 C 754.316 739.725, 755.693 737.925, 757.034 736 C 759.894 731.893, 759.014 732.994, 772.599 716.522 C 778.486 709.384, 784.922 701.374, 786.901 698.723 L 790.500 693.902 790.812 751.201 C 790.983 782.715, 790.821 819.375, 790.452 832.668 L 789.780 856.835 776.640 865.541 C 761.223 875.756, 755.671 879.836, 743.500 889.899 C 728.019 902.697, 697.810 934.067, 690.058 945.393 C 689.265 946.552, 688.331 947.725, 687.984 948 C 685.379 950.060, 659.652 986.904, 651.299 1000.539 C 638.934 1020.720, 633.679 1030.289, 621.664 1054.500 C 606.892 1084.266, 604.831 1088.828, 597.033 1109 C 590.809 1125.103, 588.574 1131.148, 586.867 1136.500 C 586.166 1138.700, 585.234 1140.927, 584.796 1141.450 C 584.358 1141.972, 584 1143.408, 584 1144.641 C 584 1145.874, 583.550 1147.160, 583 1147.500 C 582.450 1147.840, 582 1148.998, 582 1150.073 C 582 1151.148, 581.594 1152.809, 581.097 1153.764 C 580.601 1154.719, 579.657 1157.525, 579 1160 C 578.343 1162.475, 577.399 1165.281, 576.903 1166.236 C 576.406 1167.191, 576 1169.077, 576 1170.427 C 576 1171.777, 575.550 1173.160, 575 1173.500 C 574.450 1173.840, 574 1175.415, 574 1177 C 574 1178.585, 573.550 1180.160, 573 1180.500 C 572.450 1180.840, 572 1182.415, 572 1184 C 572 1185.585, 571.600 1187.129, 571.110 1187.432 C 570.621 1187.734, 569.988 1189.448, 569.704 1191.241 C 569.419 1193.033, 568.694 1196.188, 568.093 1198.250 C 567.492 1200.313, 566.550 1203.575, 566 1205.500 C 565.450 1207.425, 564.581 1210.463, 564.069 1212.250 C 560.848 1223.496, 555.686 1245.431, 550.833 1268.500 C 546.981 1286.810, 544.842 1297.402, 542.959 1307.500 C 542.344 1310.800, 541.409 1315.750, 540.881 1318.500 C 538.120 1332.888, 534.931 1351.269, 532.989 1364 C 532.527 1367.025, 531.629 1372.875, 530.994 1377 C 530.359 1381.125, 529.457 1387.200, 528.990 1390.500 C 527.568 1400.544, 525.906 1412.177, 524.991 1418.500 C 520.974 1446.239, 518.277 1471.654, 517.370 1490.317 C 516.459 1509.050, 517.930 1518.723, 523.319 1529.436 C 526.978 1536.711, 537.271 1550.993, 538.863 1551.005 C 539.213 1551.007, 540.922 1552.342, 542.660 1553.971 C 545.829 1556.942, 550.044 1559.590, 557.500 1563.296 C 568.921 1568.972, 579.576 1571.260, 595 1571.347 C 617.687 1571.476, 635.131 1566.106, 655.130 1552.836 C 666.039 1545.598, 673.559 1538.085, 680.864 1527.130 C 691.347 1511.406, 694.482 1501.995, 698.072 1475.472 C 698.665 1471.088, 699.581 1464.350, 700.107 1460.500 C 700.633 1456.650, 701.524 1449.900, 702.089 1445.500 C 706.380 1412.037, 707.967 1400.673, 710.013 1388.750 C 713.806 1366.647, 714.893 1360.713, 717.936 1345.500 C 718.486 1342.750, 719.415 1338.025, 720 1335 C 721.878 1325.296, 722.886 1320.505, 725.945 1306.750 C 726.465 1304.412, 727.390 1300.475, 728 1298 C 729.314 1292.670, 730.542 1287.009, 731.578 1281.500 C 731.992 1279.300, 733.156 1276.024, 734.165 1274.220 C 735.174 1272.415, 736 1269.253, 736 1267.192 C 736 1265.131, 736.660 1262.502, 737.467 1261.350 C 738.274 1260.198, 739.415 1257.061, 740.002 1254.378 C 741.882 1245.794, 752.158 1213.107, 754.029 1209.764 C 754.563 1208.809, 755 1207.340, 755 1206.500 C 755 1205.660, 755.450 1204.079, 756 1202.986 C 756.550 1201.894, 757.450 1200.106, 758 1199.014 C 758.550 1197.921, 759 1196.340, 759 1195.500 C 759 1194.660, 759.397 1193.191, 759.883 1192.236 C 760.369 1191.281, 761.212 1189.375, 761.757 1188 C 762.301 1186.625, 763.704 1183.362, 764.873 1180.750 C 766.043 1178.138, 767.957 1173.862, 769.127 1171.250 C 770.296 1168.638, 771.621 1165.600, 772.071 1164.500 C 772.521 1163.400, 776.626 1154.850, 781.194 1145.500 L 789.500 1128.500 790.057 1544 C 790.519 1888.214, 790.845 1960.100, 791.957 1963 C 792.695 1964.925, 793.613 1967.400, 793.996 1968.500 C 796.267 1975.014, 805.176 1991.277, 810.088 1997.876 C 816.555 2006.563, 830.427 2020, 832.928 2020 C 833.426 2020, 833.983 2020.353, 834.167 2020.784 C 834.649 2021.919, 848.486 2028.512, 855.465 2030.932 C 860.796 2032.780, 863.777 2033, 883.500 2033 C 903.223 2033, 906.204 2032.780, 911.535 2030.932 C 922.936 2026.979, 938.205 2018.706, 946.277 2012.107 C 958.473 2002.138, 972.140 1984.269, 976.572 1972.500 C 980.421 1962.276, 981.872 1885.822, 981.941 1689.500 C 981.974 1595.450, 982.300 1458.088, 982.666 1384.250 L 983.331 1250 1024 1250 L 1064.669 1250 1065.334 1384.250 C 1065.700 1458.088, 1066.026 1595.450, 1066.059 1689.500 C 1066.128 1885.822, 1067.579 1962.276, 1071.428 1972.500 C 1075.860 1984.269, 1089.527 2002.138, 1101.723 2012.107 C 1109.795 2018.706, 1125.064 2026.979, 1136.465 2030.932 C 1141.783 2032.775, 1144.782 2033, 1164.085 2033 C 1183.118 2033, 1186.512 2032.753, 1192.120 2030.962 C 1198.995 2028.767, 1213.288 2022.067, 1213.833 2020.784 C 1214.017 2020.353, 1214.574 2020, 1215.072 2020 C 1217.573 2020, 1231.445 2006.563, 1237.912 1997.876 C 1242.824 1991.277, 1251.733 1975.014, 1254.004 1968.500 C 1254.387 1967.400, 1255.305 1964.925, 1256.043 1963 C 1257.155 1960.100, 1257.481 1888.214, 1257.943 1544 L 1258.500 1128.500 1266.806 1145.500 C 1271.374 1154.850, 1275.479 1163.400, 1275.929 1164.500 C 1276.379 1165.600, 1277.704 1168.638, 1278.873 1171.250 C 1280.043 1173.863, 1281.957 1178.138, 1283.127 1180.750 C 1284.296 1183.362, 1285.699 1186.625, 1286.243 1188 C 1286.788 1189.375, 1287.631 1191.281, 1288.117 1192.236 C 1288.603 1193.191, 1289 1194.660, 1289 1195.500 C 1289 1196.340, 1289.450 1197.921, 1290 1199.014 C 1290.550 1200.106, 1291.450 1201.894, 1292 1202.986 C 1292.550 1204.079, 1293 1205.660, 1293 1206.500 C 1293 1207.340, 1293.437 1208.809, 1293.971 1209.764 C 1295.842 1213.107, 1306.118 1245.794, 1307.998 1254.378 C 1308.585 1257.061, 1309.726 1260.198, 1310.533 1261.350 C 1311.340 1262.502, 1312 1265.131, 1312 1267.192 C 1312 1269.253, 1312.826 1272.415, 1313.835 1274.220 C 1314.844 1276.024, 1316.008 1279.300, 1316.422 1281.500 C 1317.197 1285.622, 1318.259 1290.667, 1320 1298.500 C 1320.550 1300.975, 1321.450 1305.025, 1322 1307.500 C 1322.550 1309.975, 1323.450 1314.025, 1324 1316.500 C 1326.196 1326.380, 1327.132 1330.697, 1328.014 1335 C 1331.707 1353.027, 1333.692 1363.721, 1337.987 1388.750 C 1339.792 1399.268, 1341.513 1411.302, 1344.029 1431 C 1345.859 1445.326, 1346.889 1453.194, 1347.890 1460.500 C 1348.418 1464.350, 1349.335 1471.088, 1349.928 1475.472 C 1353.430 1501.342, 1356.701 1511.419, 1366.333 1526 C 1371.452 1533.748, 1383.859 1546.871, 1390 1551.032 C 1391.925 1552.336, 1393.725 1553.650, 1394 1553.952 C 1394.275 1554.253, 1395.625 1555.145, 1397 1555.933 C 1416.498 1567.109, 1431.147 1571.288, 1450.965 1571.327 C 1464.019 1571.354, 1471.365 1570.264, 1481.500 1566.798 C 1488.938 1564.254, 1498.185 1559.850, 1500 1557.987 C 1500.275 1557.704, 1502.845 1555.712, 1505.712 1553.560 C 1514.628 1546.866, 1523.671 1533.758, 1527.829 1521.500 C 1532.517 1507.679, 1531.746 1483.219, 1525.031 1432.750 C 1523.152 1418.627, 1521.882 1409.565, 1521 1404 C 1520.521 1400.975, 1519.621 1394.900, 1519 1390.500 C 1518.379 1386.100, 1517.484 1380.025, 1517.010 1377 C 1516.537 1373.975, 1515.663 1368.350, 1515.069 1364.500 C 1512.682 1349.027, 1510.419 1335.899, 1506.967 1317.500 C 1504.773 1305.807, 1501.535 1289.437, 1499.155 1278 C 1492.868 1247.781, 1487.440 1224.344, 1483.987 1212.500 C 1483.506 1210.850, 1482.637 1207.813, 1482.056 1205.750 C 1481.475 1203.688, 1480.508 1200.313, 1479.907 1198.250 C 1479.306 1196.188, 1478.581 1193.033, 1478.296 1191.241 C 1478.012 1189.448, 1477.379 1187.734, 1476.890 1187.432 C 1476.400 1187.129, 1476 1185.585, 1476 1184 C 1476 1182.415, 1475.550 1180.840, 1475 1180.500 C 1474.450 1180.160, 1474 1178.585, 1474 1177 C 1474 1175.415, 1473.550 1173.840, 1473 1173.500 C 1472.450 1173.160, 1472 1171.777, 1472 1170.427 C 1472 1169.077, 1471.594 1167.191, 1471.097 1166.236 C 1470.601 1165.281, 1469.657 1162.475, 1469 1160 C 1468.343 1157.525, 1467.399 1154.719, 1466.903 1153.764 C 1466.406 1152.809, 1466 1151.148, 1466 1150.073 C 1466 1148.998, 1465.550 1147.840, 1465 1147.500 C 1464.450 1147.160, 1464 1145.874, 1464 1144.641 C 1464 1143.408, 1463.642 1141.972, 1463.204 1141.450 C 1462.766 1140.927, 1461.834 1138.700, 1461.133 1136.500 C 1459.426 1131.148, 1457.191 1125.103, 1450.967 1109 C 1443.169 1088.828, 1441.108 1084.266, 1426.336 1054.500 C 1414.868 1031.391, 1413.071 1028.042, 1402.727 1010.500 C 1391.779 991.933, 1364.063 951.345, 1360.048 948 C 1359.718 947.725, 1357.885 945.475, 1355.974 943 C 1344.159 927.696, 1319.574 902.345, 1304.497 889.920 C 1291.250 879.002, 1288.960 877.314, 1272.250 866.153 L 1257 855.968 1257.003 785.734 C 1257.005 740.656, 1256.602 711.635, 1255.878 704.708 C 1254.829 694.660, 1255.136 690.997, 1256.804 693.674 C 1257.187 694.288, 1259.126 696.750, 1261.113 699.145 C 1265.137 703.997, 1285.421 728.654, 1287.316 731 C 1287.983 731.825, 1289.625 734.075, 1290.966 736 C 1292.307 737.925, 1293.684 739.725, 1294.027 740 C 1294.370 740.275, 1296.608 743.425, 1299 747 C 1301.392 750.575, 1303.632 753.725, 1303.976 754 C 1305.042 754.851, 1323.461 783.324, 1325.001 786.500 C 1325.800 788.150, 1328.986 793.325, 1332.079 798 C 1335.172 802.675, 1340.089 811, 1343.005 816.500 C 1345.920 822, 1348.633 826.950, 1349.032 827.500 C 1351.034 830.259, 1365.047 859.062, 1366.180 862.750 C 1366.899 865.088, 1368.067 867, 1368.775 867 C 1369.483 867, 1370.314 867.788, 1370.622 868.750 C 1370.930 869.712, 1371.651 871.625, 1372.224 873 C 1372.798 874.375, 1373.602 876.400, 1374.011 877.500 C 1374.420 878.600, 1376.112 882.425, 1377.771 886 C 1379.430 889.575, 1381.462 894.075, 1382.288 896 C 1383.113 897.925, 1384.692 901.525, 1385.795 904 C 1386.899 906.475, 1390.366 914.800, 1393.501 922.500 C 1396.635 930.200, 1399.876 938.075, 1400.702 940 C 1401.528 941.925, 1402.548 944.400, 1402.968 945.500 C 1404.144 948.577, 1405.623 952.245, 1406.800 955 C 1407.387 956.375, 1408.439 959.300, 1409.138 961.500 C 1409.837 963.700, 1410.766 965.928, 1411.204 966.450 C 1411.642 966.972, 1412 968.216, 1412 969.214 C 1412 970.211, 1412.520 972.034, 1413.156 973.264 C 1415.584 977.960, 1416 979.019, 1416 980.500 C 1416 981.340, 1416.397 982.809, 1416.883 983.764 C 1417.369 984.719, 1418.209 986.625, 1418.750 988 C 1419.290 989.375, 1420.303 991.850, 1421 993.500 C 1421.697 995.150, 1422.710 997.625, 1423.250 999 C 1423.791 1000.375, 1424.631 1002.281, 1425.117 1003.236 C 1425.603 1004.191, 1426 1005.852, 1426 1006.927 C 1426 1008.002, 1426.450 1009.160, 1427 1009.500 C 1427.550 1009.840, 1428 1011.001, 1428 1012.081 C 1428 1013.161, 1429.389 1017.072, 1431.087 1020.772 C 1432.785 1024.472, 1434.830 1029.975, 1435.631 1033 C 1436.432 1036.025, 1439.328 1042.550, 1442.066 1047.500 C 1454.112 1069.275, 1466.583 1081.453, 1486.500 1090.893 C 1490.350 1092.717, 1494.281 1094.613, 1495.236 1095.105 C 1496.191 1095.597, 1497.852 1096, 1498.927 1096 C 1500.002 1096, 1501.160 1096.450, 1501.500 1097 C 1501.840 1097.550, 1503.412 1098, 1504.994 1098 C 1506.576 1098, 1509.103 1098.469, 1510.610 1099.042 C 1514.355 1100.466, 1552.905 1100.495, 1554.325 1099.075 C 1554.916 1098.484, 1556.216 1098, 1557.214 1098 C 1558.211 1098, 1559.809 1097.603, 1560.764 1097.117 C 1561.719 1096.631, 1563.625 1095.795, 1565 1095.259 C 1581.153 1088.961, 1597.671 1076.606, 1605.870 1064.689 C 1618.817 1045.871, 1620.448 1022.093, 1610.821 992.500 C 1609.747 989.200, 1608.492 985.600, 1608.032 984.500 C 1607.572 983.400, 1606.215 979.800, 1605.018 976.500 C 1603.820 973.200, 1602.426 969.719, 1601.920 968.764 C 1601.414 967.809, 1601 966.340, 1601 965.500 C 1601 964.660, 1600.480 962.966, 1599.844 961.736 C 1597.377 956.964, 1597 955.967, 1597 954.214 C 1597 953.216, 1596.628 951.972, 1596.174 951.450 C 1595.720 950.928, 1594.738 948.475, 1593.994 946 C 1593.249 943.525, 1592.352 941.050, 1592 940.500 C 1591.648 939.950, 1590.748 937.475, 1590 935 C 1589.252 932.525, 1588.365 930.050, 1588.028 929.500 C 1587.692 928.950, 1586.835 926.700, 1586.124 924.500 C 1584.404 919.179, 1572.275 887.628, 1569.887 882.261 C 1568.849 879.929, 1568 877.561, 1568 876.997 C 1568 876.434, 1567.603 875.191, 1567.117 874.236 C 1566.631 873.281, 1565.791 871.375, 1565.250 870 C 1564.710 868.625, 1563.757 866.263, 1563.134 864.750 C 1562.510 863.237, 1561.490 860.763, 1560.866 859.250 C 1560.243 857.737, 1559.343 855.487, 1558.866 854.250 C 1558.390 853.013, 1557.490 850.763, 1556.866 849.250 C 1556.243 847.737, 1555.400 845.600, 1554.993 844.500 C 1554.047 841.941, 1549.028 830.745, 1542.217 816 C 1540.566 812.425, 1537.764 806.125, 1535.990 802 C 1529.700 787.373, 1513.542 754.135, 1505.606 739.500 C 1503.221 735.100, 1499.585 728.350, 1497.527 724.500 C 1489.195 708.916, 1484.916 701.104, 1480 692.500 C 1478.900 690.575, 1477.100 687.425, 1476 685.500 C 1474.900 683.575, 1473.100 680.425, 1472 678.500 C 1470.900 676.575, 1469.064 673.348, 1467.921 671.328 C 1465.607 667.243, 1457.981 655.780, 1457.058 655 C 1456.733 654.725, 1454.226 651.125, 1451.488 647 C 1448.750 642.875, 1445.158 637.659, 1443.505 635.408 C 1441.852 633.157, 1438.025 627.811, 1435 623.528 C 1431.975 619.245, 1429.050 615.237, 1428.500 614.621 C 1427.950 614.004, 1425.481 610.800, 1423.014 607.500 C 1406.515 585.430, 1376.719 553.894, 1343.500 523.341 C 1326.167 507.399, 1322.916 504.848, 1299.500 488.821 C 1294.550 485.433, 1290.350 482.288, 1290.167 481.831 C 1289.983 481.374, 1289.196 481, 1288.417 481 C 1287.638 481, 1287 480.550, 1287 480 C 1287 479.450, 1286.519 479, 1285.930 479 C 1285.342 479, 1282.977 477.704, 1280.675 476.121 C 1272.471 470.476, 1259.292 463.343, 1234.500 451.128 C 1216.285 442.154, 1212.072 440.164, 1203.750 436.604 C 1201.688 435.722, 1198.537 434.374, 1196.750 433.608 C 1185.729 428.889, 1161.990 420.611, 1150.335 417.423 C 1147.126 416.545, 1142.925 415.386, 1141 414.847 C 1139.075 414.308, 1135.813 413.447, 1133.750 412.934 C 1131.688 412.420, 1128.088 411.522, 1125.750 410.937 C 1123.412 410.353, 1119.250 409.438, 1116.500 408.905 C 1113.750 408.372, 1109.250 407.483, 1106.500 406.929 C 1090.206 403.647, 1078.491 402.215, 1057.500 400.940 C 1035.097 399.580, 992.640 398.657, 991.804 399.512" stroke="none" fill="#dcdcdc" fill-rule="evenodd"/></svg>