<?xml version="1.0" encoding="utf-8"?>
<!-- Generator: Adobe Illustrator 27.0.0, SVG Export Plug-In . SVG Version: 6.00 Build 0)  -->
<svg version="1.1" id="_x31_" xmlns="http://www.w3.org/2000/svg" xmlns:xlink="http://www.w3.org/1999/xlink" x="0px" y="0px"
	 viewBox="0 0 800 800" style="enable-background:new 0 0 800 800;" xml:space="preserve">
<style type="text/css">
	.st0{fill:#DCDCDC;}
</style>
<g>
	<polygon class="st0" points="733.8,430 733.8,370.6 360,370.6 360,430 654.4,430 654.4,748.1 520,748.1 520,780.6 717.5,780.6 
		717.5,748.1 696.9,748.1 696.9,430 	"/>
	<path class="st0" d="M308.8,571.2H104.4v-205H63.1v235.6l0,0c0,1.2,0,2.5,0,3.8v181.9h36.2V643.8h206.9v143.8h36.2V605.6
		C342.5,586.9,327.5,571.2,308.8,571.2z"/>
	<polygon class="st0" points="597.5,200 643.8,330 563.8,330 563.8,354.4 667.5,354.4 667.5,346.2 667.5,330 607.5,163.8 645,21.9 
		618.1,14.4 546.9,279.4 574.4,286.9 	"/>
	<path class="st0" d="M540.6,678.1L438.1,490c-7.5-16.2-24.4-26.2-40.6-26.2H273.1v-54.4h1.9c-26.9,0-49.4-22.5-49.4-49.4v-80
		c0-5.6,3.1-8.8,8.8-8.8s8.8,3.1,8.8,8.8v80c0,17.5,15,31.2,31.2,31.2h75v-32.5h132.5v-0.6c0-16.2-13.1-30-30-30l0,0H306.2V215.6
		c0-16.2-11.2-28.8-28.1-31.2c-5.6-0.6-10.6-0.6-17.5,0c-61.9,4.4-124.4,55-132.5,120.6c-7.5,58.1-8.8,124.4-2.5,180
		c5.6,34.4,31.9,63.1,69.4,67.5c3.8,0.6,7.5,0.6,11.9,0.6h161.9l90.6,163.8c10.6,22.5,36.9,31.2,59.4,21.2S551.2,701.2,540.6,678.1z
		"/>
</g>
<circle class="st0" cx="408.1" cy="230.6" r="71.3"/>
</svg>
