<?xml version="1.0" encoding="utf-8"?>
<!-- Generator: Adobe Illustrator 27.0.0, SVG Export Plug-In . SVG Version: 6.00 Build 0)  -->
<svg version="1.1" id="Layer_1" xmlns="http://www.w3.org/2000/svg" xmlns:xlink="http://www.w3.org/1999/xlink" x="0px" y="0px"
	 viewBox="0 0 11.3 11.9" style="enable-background:new 0 0 11.3 11.9;" xml:space="preserve">
<style type="text/css">
	.st0{fill-rule:evenodd;clip-rule:evenodd;fill:#DCDCDC;}
</style>
<path class="st0" d="M3.9,0.5C3.3-0.2,2.2,0.2,2.2,1.2v0.2L1.5,1.1C0.9,0.9,0.2,1.3,0.2,2v7.4c0,0.4,0.2,0.8,0.6,0.9l3.3,1.4h3.2
	l3.3-1.4c0.4-0.2,0.6-0.5,0.6-0.9V2c0-0.7-0.7-1.2-1.4-0.9L9.2,1.4V1.2c0-0.9-1.2-1.4-1.8-0.7l-1.7,2L3.9,0.5z M1.2,2v7.4l3.1,1.3
	h0.3L2.4,8.3C2.3,8.1,2.2,7.9,2.2,7.6V2.4L1.2,2z M6.8,10.8h0.3l3.1-1.3V2l-1,0.4l0,5.2c0,0.2-0.1,0.5-0.2,0.7L6.8,10.8z M6.2,10
	l2-2.3l0-6.5l-2,2.3V10z M5.2,3.5l-2-2.3v6.5l2,2.3V3.5z"/>
</svg>
