<?xml version="1.0" encoding="utf-8"?>
<!-- Generator: Adobe Illustrator 27.0.0, SVG Export Plug-In . SVG Version: 6.00 Build 0)  -->
<svg version="1.1" xmlns="http://www.w3.org/2000/svg" xmlns:xlink="http://www.w3.org/1999/xlink" x="0px" y="0px"
	 viewBox="0 0 59.9 95.9" style="enable-background:new 0 0 59.9 95.9;" xml:space="preserve">
<style type="text/css">
	.st0{fill:#DCDCDC;}
</style>
<g id="Layer_2">
</g>
<g id="Layer_1">
	<g>
		<g>
			<path class="st0" d="M38.8,34.6c-1.7-0.4-3.5,0.6-3.9,2.3l-1.2,4.9c-0.7,2.7-3,4.7-5.8,4.9c-2.6,0.2-5.6,0.3-8.7,0.3
				c-0.8,0-1.7,0-2.5,0.1C10.1,47.5,4.5,52,2.8,58.3l-2.1,7.6c-0.5,1.7,0.5,3.5,2.3,3.9c0.3,0.1,0.6,0.1,0.8,0.1
				c1.4,0,2.7-0.9,3.1-2.4L9,59.9c0.4-1.6,1.3-3,2.5-4.1l-0.1,11.9L8.2,91.4c-0.3,2,1.1,3.8,3.1,4c0.2,0,0.3,0,0.5,0
				c1.8,0,3.3-1.3,3.5-3.1l3.1-23.1H20l3,23.3c0.2,1.8,1.8,3.1,3.5,3.1c0.2,0,0.3,0,0.5,0c2-0.3,3.3-2.1,3.1-4l-3.2-23.7l-0.1-14.6
				c0.5,0,1-0.1,1.5-0.1c5.6-0.4,10.2-4.4,11.5-9.7l1.2-4.9C41.5,36.8,40.5,35,38.8,34.6z"/>
		</g>
		<g>
			<circle class="st0" cx="19.1" cy="37.9" r="7.1"/>
		</g>
		<g>
			<path class="st0" d="M11.7,28.3c0.4,0.6,1.1,0.9,1.8,0.7c0.1,0,0.3-0.1,0.4-0.2c0.8-0.4,1-1.4,0.6-2.2l-1.7-3
				c-0.4-0.8-1.4-1-2.2-0.6c-0.8,0.4-1,1.4-0.6,2.2L11.7,28.3z"/>
		</g>
		<g>
			<path class="st0" d="M4.9,31.6l3,1.7c0.4,0.2,0.8,0.3,1.2,0.2c0.4-0.1,0.8-0.4,1-0.7c0.4-0.8,0.2-1.8-0.6-2.2l-3-1.7
				c-0.8-0.4-1.8-0.2-2.2,0.6C3.9,30.1,4.1,31.1,4.9,31.6z"/>
		</g>
		<g>
			<path class="st0" d="M2,37.9c0,0.9,0.7,1.6,1.6,1.6h3.5c0.1,0,0.3,0,0.4-0.1c0.7-0.2,1.2-0.8,1.2-1.6c0-0.9-0.7-1.6-1.6-1.6H3.6
				C2.7,36.3,2,37,2,37.9z"/>
		</g>
		<g>
			<polygon class="st0" points="48.8,11.2 45.7,11.2 45.2,13.8 48.3,13.8 			"/>
		</g>
		<g>
			<path class="st0" d="M22.1,24.5h5v6.2c0,0.8,1,1.2,1.6,0.7l7.3-6.9h20.8c1.5,0,2.7-1.2,2.7-2.7V3.3c0-1.5-1.2-2.7-2.7-2.7H22.1
				c-1.5,0-2.7,1.2-2.7,2.7v18.5C19.4,23.3,20.6,24.5,22.1,24.5z M28.1,19.7c-0.9,0-1.5-0.7-1.5-1.5c0-0.9,0.7-1.5,1.5-1.5
				c0.9,0,1.5,0.7,1.5,1.5S28.9,19.7,28.1,19.7z M40.6,13.8h2l0.5-2.7h-1.4c-0.7,0-1.3-0.6-1.3-1.3s0.6-1.3,1.3-1.3h2l0.5-2.2
				c0.1-0.7,0.8-1.1,1.5-1s1.1,0.8,1,1.5l-0.4,1.7h3.1l0.5-2.2c0.1-0.7,0.8-1.1,1.5-1s1.1,0.8,1,1.5L52,8.5h1.5
				c0.7,0,1.3,0.6,1.3,1.3s-0.6,1.3-1.3,1.3h-2L51,13.8h1.5c0.7,0,1.3,0.6,1.3,1.3s-0.6,1.3-1.3,1.3h-2L50,18.6
				c-0.1,0.6-0.6,1-1.2,1c-0.1,0-0.2,0-0.3,0c-0.7-0.1-1.1-0.8-1-1.5l0.4-1.7h-3.1l-0.5,2.2c-0.1,0.6-0.6,1-1.2,1
				c-0.1,0-0.2,0-0.3,0c-0.7-0.1-1.1-0.8-1-1.5l0.4-1.7h-1.5c-0.7,0-1.3-0.6-1.3-1.3C39.3,14.4,39.9,13.8,40.6,13.8z M34.6,6.7
				c0-0.7,0.6-1.3,1.3-1.3s1.3,0.6,1.3,1.3v7.4c0,0.7-0.6,1.3-1.3,1.3s-1.3-0.6-1.3-1.3V6.7z M35.9,16.6c0.9,0,1.5,0.7,1.5,1.5
				c0,0.9-0.7,1.5-1.5,1.5s-1.5-0.7-1.5-1.5C34.3,17.3,35,16.6,35.9,16.6z M24.3,8.2C25,6.1,27,5,29.1,5.6C30.4,6,31.5,7,31.9,8.4
				c0.3,1.1,0.1,2.3-0.5,3.2c-0.5,0.8-1.2,1.3-2.1,1.6v0.9c0,0.7-0.6,1.3-1.3,1.3s-1.3-0.6-1.3-1.3v-1.5c0-0.9,0.6-1.6,1.5-1.8
				c0.4-0.1,0.8-0.3,1-0.6c0.2-0.4,0.3-0.8,0.2-1.2c-0.1-0.5-0.5-0.9-1-1c-0.9-0.2-1.6,0.3-1.8,0.9c-0.2,0.7-0.9,1-1.6,0.8
				C24.4,9.5,24.1,8.8,24.3,8.2z"/>
		</g>
	</g>
</g>
</svg>
