<svg fill="none" height="15" viewBox="0 0 15 15" width="15" xmlns="http://www.w3.org/2000/svg"><path clip-rule="evenodd" d="m5.75923 2.20073c-.60422-.70486-1.75923-.27756-1.75923.65082v.20986l-.62865-.25142c-.65686-.26271-1.37135.22105-1.37135.92849v7.43182c0 .4.2384.7616.60608.9192l3.29129 1.4105h3.20526l3.29127-1.4105c.3677-.1576.6061-.5192.6061-.9192v-7.43182c0-.70744-.7145-1.1912-1.3713-.92849l-.6289.25152v-.20995c-.0001-.92839-1.15512-1.35564-1.7593-.65075l-1.74052 2.03063zm-2.75923 1.53775v7.43182l3.10263 1.3297h.31026l-2.17215-2.53416c-.15535-.18125-.24074-.41208-.24074-.6508v-5.17661zm5.58711 8.76152h.31026l3.10263-1.3297v-7.43182l-1.0002.40003.0002 5.17651c0 .23872-.0854.46957-.2408.65082zm-.58711-.8516 1.99999-2.33335-.00023-6.46345-1.99976 2.33308zm-1-6.46371-2-2.33314v6.46349l2 2.33336z" fill="#151515" fill-rule="evenodd"/></svg>